# xmcd
#
# Track frame offsets: 
#        150
#        11579
#        25046
#        36296
#        50003
#        63549
#        77539
#        87952
#        99005
#        112987
#        126382
#        143972
#        152837
#        167206
#        181382
#        193692
#        207504
#
# Disc length: 2919 seconds
#
# Revision: 1
# Processed by: cddbd v1.5.2PL0 Copyright (c) Steve Scherf et al.
# Submitted via: ExactAudioCopy v0.95b3
#
DISCID=e50b6511
DTITLE=Ella Fitzgerald - Ella and Louis - CD3
DYEAR=2000
DGENRE=Jazz
TTITLE0=It's Only A Paper Moon
TTITLE1=We Can't Go On This Way 
TTITLE2=A Tisket - A Tasket
TTITLE3=Sing Song Swing
TTITLE4=You'll Have To Swing It (Mr. Paganini)
TTITLE5=You'll Never Know
TTITLE6=Taking A Chance On Love
TTITLE7=Flying Home
TTITLE8=Oh! Lady Be Good
TTITLE9=Cow Cow Boogie
TTITLE10=& Chick Webb - Oh Johnny 
TTITLE11=Lover Come Back To Me (Live)
TTITLE12=Holiday In Harlem
TTITLE13=Coochi Coochi Coo
TTITLE14=Billy
TTITLE15=If You Ever Change Your Mind
TTITLE16=Three Little Words
EXTD=ID3G: 0
EXTT0=
EXTT1=
EXTT2=
EXTT3=
EXTT4=
EXTT5=
EXTT6=
EXTT7=
EXTT8=
EXTT9=
EXTT10=
EXTT11=
EXTT12=
EXTT13=
EXTT14=
EXTT15=
EXTT16=
PLAYORDER=
